# xmcd
#
# Track frame offsets:
#	150
#	18124
#	36623
#	51897
#	69421
#	84770
#	99894
#	114118
#	127892
#	150891
#	168115
#
# Disc length: 2576 seconds
#
# Revision: 1
# Processed by: cddbd v1.5.2PL0 Copyright (c) Steve Scherf et al.
# Submitted via: audiograbber 1.83.01
#
DISCID=6d0a0e0b
DTITLE=Kings Of Leon - Only By The Night
DYEAR=2008
DGENRE=Rock
TTITLE0=Closer
TTITLE1=Crawl
TTITLE2=Sex On Fire
TTITLE3=Use Somebody
TTITLE4=Manhattan
TTITLE5=Revelry
TTITLE6=17
TTITLE7=Notion
TTITLE8=I Want You
TTITLE9=Be Somebody
TTITLE10=Cold Desert
EXTD=
EXTT0=
EXTT1=
EXTT2=
EXTT3=
EXTT4=
EXTT5=
EXTT6=
EXTT7=
EXTT8=
EXTT9=
EXTT10=
PLAYORDER=
